<svg id="svg" version="1.1" xmlns="http://www.w3.org/2000/svg" xmlns:xlink="http://www.w3.org/1999/xlink" width="400" height="289.0688259109312" viewBox="0, 0, 400,289.0688259109312"><g id="svgg"><path id="path0" d="M10.570 3.333 C 10.570 5.213,10.595 5.981,10.624 5.042 C 10.654 4.102,10.654 2.565,10.624 1.625 C 10.595 0.685,10.570 1.454,10.570 3.333 M389.404 3.417 C 389.404 5.342,389.428 6.106,389.458 5.116 C 389.487 4.126,389.487 2.551,389.458 1.616 C 389.428 0.681,389.404 1.492,389.404 3.417 M1.717 10.624 C 2.708 10.654,4.283 10.654,5.217 10.624 C 6.152 10.595,5.342 10.570,3.417 10.571 C 1.492 10.571,0.727 10.595,1.717 10.624 M394.884 10.624 C 395.874 10.654,397.449 10.654,398.384 10.624 C 399.319 10.595,398.508 10.570,396.583 10.571 C 394.658 10.571,393.894 10.595,394.884 10.624 M139.917 124.351 C 135.185 125.033,130.055 127.980,127.011 131.763 C 126.080 132.921,124.375 135.604,124.288 136.049 C 124.267 136.155,124.156 136.344,124.040 136.468 C 123.925 136.592,123.875 136.766,123.930 136.854 C 123.984 136.942,123.922 137.180,123.791 137.382 C 123.502 137.830,122.912 140.135,122.651 141.833 C 122.406 143.435,122.554 147.719,122.905 149.167 C 123.291 150.756,124.011 152.680,124.181 152.574 C 124.263 152.524,124.287 152.592,124.236 152.726 C 124.122 153.025,124.625 154.046,124.825 153.922 C 124.904 153.873,124.930 153.983,124.882 154.166 C 124.831 154.360,124.876 154.500,124.990 154.500 C 125.099 154.500,125.134 154.407,125.069 154.292 C 124.981 154.136,125.010 154.138,125.182 154.299 C 125.369 154.472,125.372 154.540,125.199 154.647 C 125.029 154.752,125.038 154.824,125.242 154.993 C 125.384 155.111,125.500 155.336,125.500 155.493 C 125.500 155.912,125.684 156.025,125.985 155.790 C 126.219 155.608,126.223 155.617,126.025 155.871 C 125.790 156.170,125.877 156.318,127.328 158.083 C 133.921 166.107,146.233 167.657,154.809 161.541 C 156.492 160.341,159.002 157.865,158.873 157.530 C 158.814 157.376,158.846 157.322,158.957 157.390 C 159.404 157.666,161.599 153.717,162.510 150.997 C 163.533 147.943,163.762 143.809,163.085 140.583 C 162.747 138.972,161.685 135.709,161.409 135.433 C 161.299 135.323,161.078 134.975,160.917 134.659 C 157.343 127.630,148.223 123.154,139.917 124.351 M187.267 135.755 C 184.424 136.473,181.437 139.055,181.063 141.117 C 181.017 141.368,180.897 141.674,180.794 141.797 C 180.519 142.129,180.419 146.222,180.658 147.373 C 180.767 147.899,180.848 148.369,180.838 148.418 C 180.778 148.705,182.120 150.881,182.713 151.460 C 185.045 153.735,189.646 154.679,193.118 153.596 C 194.226 153.250,194.222 153.260,193.893 151.763 C 193.631 150.570,193.441 150.311,193.075 150.644 C 192.624 151.054,188.785 151.396,188.445 151.056 C 188.384 150.995,188.146 150.925,187.917 150.901 C 187.688 150.876,187.294 150.713,187.042 150.538 C 186.790 150.364,186.452 150.174,186.292 150.116 C 186.131 150.058,186.000 149.933,186.000 149.839 C 186.000 149.744,185.905 149.667,185.790 149.667 C 185.559 149.667,185.518 149.602,184.667 147.910 C 182.988 144.573,184.496 139.851,187.623 138.650 C 188.864 138.173,191.203 138.173,192.613 138.649 C 193.145 138.828,193.587 138.962,193.595 138.946 C 193.655 138.825,194.334 136.391,194.334 136.298 C 194.331 135.699,189.084 135.296,187.267 135.755 M201.851 135.764 C 198.106 136.771,195.798 140.271,195.802 144.940 C 195.804 147.297,196.539 149.872,197.478 150.811 C 197.642 150.975,197.823 151.232,197.881 151.383 C 198.556 153.142,203.411 154.510,206.334 153.764 C 214.551 151.667,214.767 138.136,206.622 135.768 C 205.475 135.435,203.081 135.433,201.851 135.764 M215.745 135.869 C 215.700 135.987,215.683 140.021,215.707 144.833 L 215.750 153.583 221.125 153.627 L 226.500 153.671 226.500 152.339 L 226.500 151.006 222.828 150.962 L 219.157 150.917 219.120 143.333 L 219.083 135.750 217.455 135.702 C 216.247 135.667,215.806 135.710,215.745 135.869 M226.333 135.811 C 226.333 135.890,226.416 136.358,226.517 136.852 C 226.619 137.346,226.725 137.900,226.754 138.083 C 226.782 138.267,226.820 138.454,226.839 138.500 C 226.857 138.546,226.882 138.658,226.894 138.750 C 226.907 138.842,227.742 142.235,228.750 146.291 L 230.583 153.664 232.420 153.666 L 234.258 153.667 235.212 149.792 C 235.736 147.660,236.192 145.767,236.225 145.583 C 236.257 145.400,236.328 145.137,236.384 145.000 C 236.439 144.862,236.526 144.458,236.578 144.100 C 236.690 143.330,236.827 142.678,236.950 142.333 C 236.999 142.196,237.071 141.749,237.111 141.339 C 237.262 139.772,237.542 140.268,237.910 142.750 C 238.073 143.850,238.248 144.862,238.299 145.000 C 238.349 145.137,238.412 145.438,238.438 145.667 C 238.464 145.896,238.537 146.271,238.600 146.500 C 238.663 146.729,238.731 147.029,238.751 147.167 C 238.785 147.406,239.918 152.512,240.110 153.292 C 240.199 153.652,240.274 153.667,242.012 153.667 L 243.820 153.667 243.987 153.042 C 244.079 152.698,244.350 151.704,244.590 150.833 C 244.830 149.962,245.086 149.025,245.159 148.750 C 245.233 148.475,245.751 146.586,246.312 144.552 C 246.873 142.518,247.353 140.718,247.379 140.552 C 247.405 140.386,247.474 140.174,247.532 140.081 C 247.590 139.988,247.720 139.463,247.821 138.914 C 247.921 138.366,248.115 137.504,248.250 137.000 C 248.627 135.597,248.701 135.667,246.837 135.667 C 245.246 135.667,245.170 135.683,245.093 136.042 C 245.049 136.248,244.855 137.075,244.662 137.879 C 244.468 138.683,244.287 139.508,244.260 139.712 C 244.233 139.916,244.154 140.218,244.085 140.382 C 244.016 140.547,244.001 140.723,244.052 140.774 C 244.103 140.826,244.068 141.066,243.974 141.309 C 243.879 141.551,243.781 141.900,243.755 142.083 C 243.730 142.267,243.442 143.654,243.116 145.167 C 242.790 146.679,242.471 148.276,242.408 148.716 C 242.291 149.528,242.144 149.628,242.055 148.955 C 242.028 148.751,241.972 148.396,241.932 148.167 C 241.892 147.938,241.811 147.412,241.753 147.000 C 241.666 146.390,239.728 137.399,239.390 136.042 C 239.301 135.683,239.222 135.667,237.580 135.667 L 235.863 135.667 234.695 140.458 C 233.405 145.752,232.869 148.119,232.761 149.000 C 232.721 149.321,232.678 149.621,232.664 149.667 C 232.630 149.778,231.005 141.868,230.952 141.333 C 230.929 141.104,230.865 140.842,230.810 140.750 C 230.754 140.658,230.651 140.208,230.579 139.750 C 230.508 139.292,230.428 138.804,230.402 138.667 C 230.376 138.529,230.322 138.229,230.282 138.000 C 230.072 136.791,229.963 136.221,229.891 135.958 C 229.804 135.642,226.333 135.498,226.333 135.811 M252.584 140.625 C 250.417 147.260,248.500 153.326,248.500 153.549 C 248.500 153.614,249.274 153.667,250.221 153.667 L 251.942 153.667 252.565 151.625 C 253.120 149.806,253.277 149.218,253.321 148.792 C 253.328 148.723,254.602 148.667,256.153 148.667 L 258.973 148.667 259.270 149.542 C 259.434 150.023,259.799 151.129,260.083 152.000 L 260.599 153.583 262.383 153.631 C 263.364 153.657,264.168 153.619,264.169 153.547 C 264.170 153.475,263.126 150.267,261.849 146.417 C 260.573 142.567,259.287 138.573,258.993 137.542 L 258.457 135.667 256.330 135.667 L 254.204 135.667 252.584 140.625 M263.167 135.810 C 263.167 135.962,263.980 137.471,265.110 139.417 C 265.483 140.058,266.408 141.783,267.164 143.250 C 267.921 144.717,268.606 145.988,268.687 146.075 C 268.767 146.162,268.833 147.906,268.833 149.950 L 268.833 153.667 270.500 153.667 L 272.167 153.667 272.167 149.891 L 272.167 146.115 272.781 145.016 C 273.119 144.411,273.494 143.818,273.614 143.696 C 273.735 143.575,273.833 143.375,273.833 143.252 C 273.833 143.129,273.895 143.003,273.971 142.972 C 274.089 142.925,276.333 139.070,276.333 138.915 C 276.333 138.885,276.708 138.210,277.167 137.417 C 278.237 135.563,278.297 135.667,276.156 135.667 L 274.312 135.667 273.555 137.292 C 273.138 138.185,272.663 139.217,272.499 139.583 C 271.271 142.321,270.833 143.361,270.833 143.536 C 270.833 143.857,270.337 143.287,270.258 142.875 C 270.220 142.680,269.618 141.338,268.918 139.893 C 268.219 138.449,267.492 136.907,267.303 136.467 L 266.959 135.667 265.063 135.667 C 264.020 135.667,263.167 135.731,263.167 135.810 M205.300 138.367 C 205.410 138.477,205.500 138.513,205.500 138.447 C 205.500 138.191,206.808 139.011,207.308 139.580 C 210.333 143.025,209.150 150.329,205.442 151.100 C 200.648 152.097,197.531 145.999,200.180 140.806 C 201.185 138.837,204.291 137.357,205.300 138.367 M257.358 142.917 C 257.826 144.383,258.245 145.677,258.289 145.792 C 258.351 145.952,257.860 146.000,256.167 146.000 C 254.165 146.000,253.974 145.974,254.073 145.718 C 254.383 144.910,255.814 139.980,255.927 139.333 L 256.057 138.583 256.282 139.417 C 256.406 139.875,256.890 141.450,257.358 142.917 M126.465 153.485 C 127.369 153.475,129.297 153.765,129.540 153.947 C 129.730 154.089,130.990 154.474,133.250 155.079 C 133.708 155.202,134.533 155.435,135.083 155.597 C 136.299 155.956,143.614 155.993,147.750 155.661 C 149.125 155.551,150.550 155.443,150.917 155.421 C 151.283 155.399,152.996 155.282,154.722 155.161 C 156.797 155.016,157.899 154.998,157.972 155.108 C 158.033 155.200,158.215 155.323,158.375 155.382 C 158.576 155.456,158.667 155.669,158.667 156.064 C 158.667 156.380,158.760 156.682,158.875 156.734 C 158.990 156.787,158.821 156.783,158.500 156.727 L 157.917 156.625 158.250 157.007 C 158.540 157.340,158.545 157.376,158.292 157.283 C 158.125 157.223,158.000 157.257,158.000 157.362 C 158.000 157.463,158.131 157.645,158.292 157.765 C 158.557 157.964,158.549 157.975,158.208 157.889 C 157.849 157.798,157.720 158.027,157.823 158.570 C 157.839 158.654,157.741 158.631,157.606 158.519 C 157.239 158.214,156.596 158.628,156.883 158.983 C 157.033 159.168,157.034 159.201,156.887 159.113 C 156.778 159.048,156.639 159.076,156.578 159.175 C 156.517 159.275,156.353 159.313,156.215 159.259 C 156.040 159.192,155.992 159.240,156.060 159.415 C 156.167 159.694,155.913 159.764,155.750 159.500 C 155.693 159.408,155.558 159.334,155.448 159.336 C 155.298 159.338,155.297 159.369,155.445 159.462 C 155.560 159.536,155.087 159.821,154.278 160.165 C 153.529 160.483,152.818 160.838,152.697 160.955 C 152.576 161.071,152.276 161.212,152.030 161.268 C 151.784 161.324,150.758 161.619,149.750 161.923 C 145.546 163.190,137.290 163.007,134.566 161.587 C 134.300 161.449,133.925 161.335,133.731 161.334 C 133.537 161.334,133.172 161.171,132.919 160.972 C 132.547 160.679,132.402 160.648,132.153 160.803 C 131.901 160.960,131.863 160.950,131.941 160.748 C 132.036 160.499,131.756 160.391,131.625 160.625 C 131.586 160.694,131.574 160.665,131.598 160.562 C 131.659 160.293,131.321 160.000,130.947 160.000 C 130.710 160.000,130.650 159.914,130.715 159.666 C 130.763 159.483,130.734 159.375,130.651 159.426 C 130.568 159.478,130.500 159.632,130.500 159.770 C 130.500 159.907,130.420 159.970,130.322 159.910 C 130.224 159.849,130.183 159.698,130.230 159.575 C 130.285 159.432,130.076 159.244,129.658 159.060 C 129.296 158.900,129.000 158.714,129.000 158.648 C 129.000 158.581,128.745 158.442,128.434 158.339 C 127.783 158.124,126.941 157.370,126.864 156.932 C 126.827 156.724,126.878 156.672,127.031 156.762 C 127.151 156.833,127.108 156.729,126.935 156.532 C 126.729 156.296,126.672 156.097,126.769 155.954 C 126.850 155.833,126.740 155.925,126.524 156.159 L 126.132 156.583 126.221 156.192 C 126.347 155.641,126.186 155.276,125.916 155.500 C 125.667 155.707,125.464 155.121,125.579 154.524 C 125.617 154.323,125.580 154.200,125.496 154.252 C 125.322 154.360,125.071 153.540,125.230 153.381 C 125.287 153.324,125.333 153.455,125.333 153.672 C 125.333 153.957,125.384 154.016,125.515 153.885 C 125.647 153.753,125.647 153.608,125.515 153.362 C 125.246 152.859,125.295 152.704,125.590 153.125 C 125.778 153.393,126.012 153.490,126.465 153.485 M159.766 155.526 C 159.845 155.654,159.811 155.673,159.664 155.582 C 159.504 155.483,159.473 155.521,159.550 155.723 C 159.608 155.875,159.584 156.000,159.495 156.000 C 159.406 156.000,159.333 155.850,159.333 155.667 C 159.333 155.301,159.578 155.222,159.766 155.526 M127.268 156.929 C 127.149 157.240,127.587 157.736,127.842 157.578 C 127.956 157.507,127.918 157.393,127.735 157.259 C 127.578 157.144,127.502 156.964,127.568 156.859 C 127.633 156.753,127.615 156.667,127.528 156.667 C 127.440 156.667,127.324 156.785,127.268 156.929 M1.717 278.458 C 2.708 278.487,4.283 278.487,5.217 278.458 C 6.152 278.428,5.342 278.404,3.417 278.404 C 1.492 278.404,0.727 278.428,1.717 278.458 M394.884 278.458 C 395.874 278.487,397.449 278.487,398.384 278.458 C 399.319 278.428,398.508 278.404,396.583 278.404 C 394.658 278.404,393.894 278.428,394.884 278.458 M10.571 285.583 C 10.571 287.508,10.595 288.273,10.624 287.283 C 10.654 286.292,10.654 284.717,10.624 283.783 C 10.595 282.848,10.570 283.658,10.571 285.583 M389.404 285.583 C 389.404 287.508,389.428 288.273,389.458 287.283 C 389.487 286.292,389.487 284.717,389.458 283.783 C 389.428 282.848,389.404 283.658,389.404 285.583 " stroke="none" fill="#244e7f" fill-rule="evenodd"></path><path id="path1" d="M0.000 5.250 L 0.000 10.500 3.417 10.500 C 5.583 10.500,6.833 10.561,6.833 10.667 C 6.833 10.772,5.583 10.833,3.417 10.833 L 0.000 10.833 0.000 144.590 L 0.000 278.346 3.417 278.298 C 5.296 278.272,6.834 278.306,6.833 278.375 C 6.833 278.444,5.296 278.500,3.417 278.500 L 0.000 278.500 0.000 283.750 L 0.000 289.000 5.250 289.000 L 10.500 289.000 10.500 285.583 C 10.500 283.417,10.561 282.167,10.667 282.167 C 10.772 282.167,10.833 283.417,10.833 285.583 L 10.833 289.000 200.080 289.000 L 389.327 289.000 389.375 285.542 L 389.424 282.083 389.462 285.542 L 389.500 289.000 394.750 289.000 L 400.000 289.000 400.000 283.750 L 400.000 278.500 396.583 278.500 C 394.704 278.500,393.167 278.444,393.167 278.375 C 393.166 278.306,394.704 278.272,396.583 278.298 L 400.000 278.346 400.000 144.590 L 400.000 10.833 396.583 10.833 C 394.417 10.833,393.167 10.772,393.167 10.667 C 393.167 10.561,394.417 10.500,396.583 10.500 L 400.000 10.500 400.000 5.250 L 400.000 0.000 394.750 0.000 L 389.500 0.000 389.500 3.417 C 389.500 5.296,389.444 6.833,389.375 6.833 C 389.306 6.834,389.272 5.296,389.298 3.417 L 389.346 0.000 200.090 0.000 L 10.833 0.000 10.833 3.417 C 10.833 5.583,10.772 6.833,10.667 6.833 C 10.561 6.833,10.500 5.583,10.500 3.417 L 10.500 0.000 5.250 0.000 L 0.000 0.000 0.000 5.250 M146.417 124.412 C 147.242 124.546,148.360 124.808,148.901 124.994 C 149.443 125.181,150.011 125.333,150.165 125.333 C 152.626 125.333,160.146 131.881,161.086 134.841 C 161.143 135.020,161.259 135.167,161.345 135.167 C 161.430 135.167,161.500 135.253,161.500 135.359 C 161.500 135.465,161.724 136.026,161.999 136.607 C 164.765 142.461,164.058 150.152,160.202 156.167 C 159.878 156.671,159.613 157.173,159.612 157.282 C 159.612 157.392,159.567 157.470,159.514 157.456 C 159.460 157.442,158.742 158.128,157.917 158.979 C 153.936 163.087,149.445 165.085,143.750 165.281 C 126.641 165.870,116.509 147.553,125.923 133.056 C 126.409 132.308,126.757 131.645,126.695 131.584 C 126.634 131.523,126.663 131.497,126.760 131.528 C 126.857 131.558,127.369 131.117,127.898 130.547 C 129.655 128.653,133.408 126.097,135.250 125.540 C 138.089 124.683,138.872 124.475,139.750 124.350 C 141.375 124.118,144.804 124.150,146.417 124.412 M193.500 135.867 C 194.347 136.133,194.357 136.174,194.007 137.917 C 193.747 139.210,193.756 139.205,192.583 138.799 C 188.014 137.217,184.083 139.969,184.083 144.750 C 184.083 149.417,187.748 152.083,192.333 150.753 C 193.662 150.368,193.706 150.371,193.844 150.873 C 194.555 153.449,193.829 153.990,189.652 153.997 C 182.659 154.009,178.619 148.438,180.745 141.717 C 181.274 140.043,183.055 137.333,183.626 137.333 C 183.696 137.333,183.959 137.143,184.210 136.910 C 184.461 136.677,184.667 136.524,184.667 136.571 C 184.667 136.617,185.023 136.502,185.458 136.315 C 187.393 135.483,191.545 135.252,193.500 135.867 M206.678 135.769 C 211.339 137.152,213.677 142.159,212.245 147.687 C 210.063 156.105,198.248 156.292,195.995 147.944 C 193.939 140.324,199.743 133.710,206.678 135.769 M219.167 143.250 L 219.167 150.833 222.917 150.833 L 226.667 150.833 226.667 152.250 L 226.667 153.667 221.167 153.667 L 215.667 153.667 215.667 144.667 L 215.667 135.667 217.417 135.667 L 219.167 135.667 219.167 143.250 M229.902 135.958 C 230.029 136.368,231.072 141.263,231.917 145.417 C 232.309 147.342,232.674 148.804,232.727 148.667 C 232.781 148.529,233.017 147.517,233.251 146.417 C 233.485 145.317,233.930 143.404,234.239 142.167 C 234.549 140.929,234.854 139.579,234.916 139.167 C 234.979 138.754,235.183 137.798,235.369 137.042 L 235.708 135.667 237.596 135.667 L 239.485 135.667 239.579 136.292 C 239.631 136.635,240.124 139.017,240.675 141.583 C 241.225 144.150,241.757 146.737,241.857 147.333 C 242.046 148.460,242.331 149.050,242.336 148.325 C 242.340 147.804,244.366 138.688,245.010 136.294 L 245.180 135.667 246.923 135.667 C 248.208 135.667,248.666 135.722,248.665 135.875 C 248.664 136.102,247.894 138.983,246.407 144.333 C 245.885 146.212,245.421 147.975,245.377 148.250 C 245.332 148.525,245.086 149.537,244.829 150.500 C 244.573 151.462,244.278 152.569,244.175 152.958 L 243.987 153.667 242.035 153.667 C 240.131 153.666,240.083 153.657,240.053 153.292 C 240.036 153.085,239.675 151.417,239.251 149.583 C 238.305 145.487,237.516 141.723,237.487 141.167 C 237.471 140.857,237.424 140.922,237.305 141.417 C 237.216 141.783,236.500 144.690,235.713 147.875 L 234.281 153.667 232.214 153.667 C 230.957 153.667,230.185 153.605,230.244 153.509 C 230.298 153.422,230.115 152.402,229.838 151.241 C 229.560 150.080,229.333 148.951,229.333 148.732 C 229.333 148.513,229.254 148.333,229.157 148.333 C 229.060 148.333,229.021 148.268,229.070 148.188 C 229.119 148.109,228.486 145.363,227.663 142.088 C 226.840 138.812,226.167 136.027,226.167 135.899 C 226.167 135.509,229.780 135.566,229.902 135.958 M260.456 141.792 C 262.547 148.169,264.175 153.323,264.170 153.547 C 264.168 153.619,263.326 153.656,262.298 153.630 L 260.430 153.583 259.614 151.125 L 258.797 148.667 256.162 148.667 L 253.526 148.667 253.000 150.375 C 252.711 151.315,252.350 152.440,252.198 152.875 L 251.922 153.667 250.128 153.667 C 249.141 153.667,248.333 153.608,248.333 153.537 C 248.333 153.465,249.196 150.791,250.250 147.594 C 251.304 144.397,252.167 141.673,252.167 141.539 C 252.167 141.406,252.586 140.030,253.099 138.482 L 254.032 135.667 256.240 135.667 L 258.449 135.667 260.456 141.792 M267.500 136.542 C 268.020 137.755,268.312 138.410,269.509 141.042 C 270.715 143.694,270.477 143.740,271.923 140.583 C 272.470 139.392,273.224 137.817,273.599 137.083 L 274.282 135.750 276.224 135.703 C 277.359 135.676,278.167 135.721,278.167 135.813 C 278.167 135.994,275.890 140.012,275.086 141.250 C 274.788 141.708,274.321 142.533,274.047 143.083 C 273.433 144.318,272.859 145.342,272.607 145.650 C 272.482 145.804,272.388 147.223,272.333 149.788 L 272.250 153.692 270.542 153.721 L 268.833 153.750 268.833 150.145 L 268.833 146.540 267.193 143.561 C 266.291 141.924,265.235 140.021,264.847 139.333 C 264.459 138.646,263.994 137.746,263.814 137.333 C 263.634 136.921,263.373 136.377,263.234 136.125 L 262.981 135.667 265.053 135.667 L 267.126 135.667 267.500 136.542 M202.373 138.761 C 201.341 139.276,200.600 140.082,200.017 141.326 C 199.353 142.741,199.365 146.983,200.037 148.268 C 202.841 153.633,208.867 151.233,208.867 144.750 C 208.867 143.013,208.253 140.667,207.798 140.667 C 207.715 140.667,207.685 140.605,207.732 140.529 C 207.901 140.256,206.757 139.116,205.928 138.730 C 204.759 138.186,203.506 138.197,202.373 138.761 M255.831 140.375 C 255.701 140.948,255.592 141.529,255.589 141.667 C 255.586 141.804,255.536 141.954,255.477 142.000 C 255.419 142.046,255.131 142.864,254.837 143.817 C 254.544 144.771,254.264 145.652,254.217 145.776 C 254.148 145.956,254.526 146.000,256.149 146.000 C 257.259 146.000,258.167 145.967,258.167 145.928 C 258.167 145.888,258.084 145.644,257.983 145.386 C 257.882 145.128,257.765 144.692,257.722 144.417 C 257.680 144.142,257.350 143.001,256.989 141.882 C 256.628 140.763,256.333 139.732,256.333 139.590 C 256.333 138.973,256.047 139.420,255.831 140.375 " stroke="none" fill="#fbfbfb" fill-rule="evenodd"></path><path id="path2" d="M125.333 152.891 C 125.333 152.963,125.415 153.175,125.515 153.362 C 125.647 153.608,125.647 153.753,125.515 153.885 C 125.384 154.016,125.333 153.957,125.333 153.672 C 125.333 153.455,125.287 153.324,125.230 153.381 C 125.071 153.540,125.322 154.360,125.496 154.252 C 125.580 154.200,125.617 154.323,125.579 154.524 C 125.464 155.121,125.667 155.707,125.916 155.500 C 126.186 155.276,126.347 155.641,126.221 156.192 L 126.132 156.583 126.524 156.159 C 126.740 155.925,126.850 155.833,126.769 155.954 C 126.672 156.097,126.729 156.296,126.935 156.532 C 127.108 156.729,127.151 156.833,127.031 156.762 C 126.878 156.672,126.827 156.724,126.864 156.932 C 126.941 157.370,127.783 158.124,128.434 158.339 C 128.745 158.442,129.000 158.581,129.000 158.648 C 129.000 158.714,129.296 158.900,129.658 159.060 C 130.076 159.244,130.285 159.432,130.230 159.575 C 130.183 159.698,130.224 159.849,130.322 159.910 C 130.420 159.970,130.500 159.907,130.500 159.770 C 130.500 159.632,130.568 159.478,130.651 159.426 C 130.734 159.375,130.763 159.483,130.715 159.666 C 130.650 159.914,130.710 160.000,130.947 160.000 C 131.321 160.000,131.659 160.293,131.598 160.562 C 131.574 160.665,131.586 160.694,131.625 160.625 C 131.756 160.391,132.036 160.499,131.941 160.748 C 131.863 160.950,131.901 160.960,132.153 160.803 C 132.402 160.648,132.547 160.679,132.919 160.972 C 133.172 161.171,133.537 161.334,133.731 161.334 C 133.925 161.335,134.300 161.449,134.566 161.587 C 135.360 162.001,138.217 162.689,137.667 162.333 C 137.517 162.237,137.496 162.171,137.615 162.169 C 137.724 162.168,137.802 162.022,137.788 161.845 C 137.761 161.477,137.464 161.465,137.319 161.826 C 137.242 162.019,137.156 161.991,136.903 161.689 C 136.727 161.480,136.321 161.194,136.000 161.053 L 135.417 160.797 136.000 160.578 C 136.321 160.457,136.471 160.351,136.333 160.341 C 136.150 160.328,136.172 160.270,136.417 160.124 C 137.062 159.737,146.914 159.803,147.368 160.196 C 147.722 160.504,147.745 160.505,147.858 160.218 C 147.956 159.968,147.979 159.963,147.988 160.187 C 147.997 160.384,148.235 160.489,148.875 160.574 L 149.750 160.692 149.358 161.012 C 149.142 161.188,148.898 161.290,148.816 161.239 C 148.734 161.189,148.667 161.231,148.667 161.333 C 148.667 161.436,148.592 161.473,148.500 161.417 C 148.408 161.360,148.333 161.416,148.333 161.541 C 148.333 161.689,148.098 161.782,147.662 161.808 C 146.714 161.864,146.046 162.133,146.750 162.176 L 147.250 162.206 146.750 162.333 C 146.317 162.444,146.363 162.463,147.097 162.480 C 147.640 162.493,148.600 162.297,149.764 161.935 C 150.765 161.624,151.784 161.324,152.030 161.268 C 152.276 161.212,152.576 161.071,152.697 160.955 C 152.818 160.838,153.529 160.483,154.278 160.165 C 155.087 159.821,155.560 159.536,155.445 159.462 C 155.297 159.369,155.298 159.338,155.448 159.336 C 155.558 159.334,155.693 159.408,155.750 159.500 C 155.913 159.764,156.167 159.694,156.060 159.415 C 155.992 159.240,156.040 159.192,156.215 159.259 C 156.353 159.313,156.517 159.275,156.578 159.175 C 156.639 159.076,156.778 159.048,156.887 159.113 C 157.034 159.201,157.033 159.168,156.883 158.983 C 156.596 158.628,157.239 158.214,157.606 158.519 C 157.741 158.631,157.839 158.654,157.823 158.570 C 157.720 158.027,157.849 157.798,158.208 157.889 C 158.549 157.975,158.557 157.964,158.292 157.765 C 158.131 157.645,158.000 157.463,158.000 157.362 C 158.000 157.257,158.125 157.223,158.292 157.283 C 158.545 157.376,158.540 157.340,158.250 157.007 L 157.917 156.625 158.500 156.727 C 158.821 156.783,158.990 156.787,158.875 156.734 C 158.760 156.682,158.667 156.380,158.667 156.064 C 158.667 155.669,158.576 155.456,158.375 155.382 C 158.215 155.323,158.033 155.200,157.972 155.108 C 157.899 154.998,156.797 155.016,154.722 155.161 C 152.996 155.282,151.283 155.399,150.917 155.421 C 150.550 155.443,149.125 155.551,147.750 155.661 C 143.614 155.993,136.299 155.956,135.083 155.597 C 134.533 155.435,133.708 155.202,133.250 155.079 C 130.990 154.474,129.730 154.089,129.540 153.947 C 129.297 153.765,127.369 153.475,126.465 153.485 C 126.012 153.490,125.778 153.393,125.590 153.125 C 125.449 152.924,125.333 152.818,125.333 152.891 M159.333 155.667 C 159.333 155.850,159.406 156.000,159.495 156.000 C 159.584 156.000,159.608 155.875,159.550 155.723 C 159.473 155.521,159.504 155.483,159.664 155.582 C 159.811 155.673,159.845 155.654,159.766 155.526 C 159.578 155.222,159.333 155.301,159.333 155.667 M127.568 156.859 C 127.502 156.964,127.578 157.144,127.735 157.259 C 127.918 157.393,127.956 157.507,127.842 157.578 C 127.587 157.736,127.149 157.240,127.268 156.929 C 127.324 156.785,127.440 156.667,127.528 156.667 C 127.615 156.667,127.633 156.753,127.568 156.859 " stroke="none" fill="#58a8d9" fill-rule="evenodd"></path><path id="path3" d="M131.250 127.680 C 130.207 128.469,130.150 128.628,131.167 127.914 C 131.671 127.560,132.115 127.247,132.153 127.219 C 132.191 127.190,132.153 127.169,132.069 127.171 C 131.985 127.174,131.617 127.403,131.250 127.680 M153.833 127.217 C 153.833 127.266,154.115 127.480,154.458 127.691 C 154.802 127.903,155.571 128.485,156.167 128.983 C 156.762 129.481,157.065 129.686,156.839 129.437 C 156.207 128.742,153.833 126.989,153.833 127.217 M128.658 129.792 L 128.083 130.417 128.708 129.842 C 129.052 129.526,129.333 129.245,129.333 129.217 C 129.333 129.090,129.192 129.210,128.658 129.792 M226.203 135.917 C 226.205 136.100,226.263 136.475,226.333 136.750 C 226.448 137.199,226.461 137.208,226.464 136.833 C 226.465 136.604,226.407 136.229,226.333 136.000 C 226.229 135.674,226.201 135.655,226.203 135.917 M248.257 136.961 C 248.091 137.670,247.922 138.362,247.881 138.500 C 247.816 138.722,247.826 138.722,247.965 138.500 C 248.164 138.184,248.731 135.842,248.633 135.744 C 248.593 135.704,248.424 136.251,248.257 136.961 M253.769 136.436 C 253.622 136.869,253.530 137.252,253.565 137.287 C 253.600 137.323,253.750 136.997,253.897 136.564 C 254.045 136.131,254.137 135.748,254.102 135.713 C 254.066 135.677,253.917 136.003,253.769 136.436 M277.291 137.180 C 277.039 137.631,276.868 138.000,276.910 138.000 C 277.024 138.000,277.884 136.495,277.811 136.423 C 277.777 136.388,277.543 136.729,277.291 137.180 M209.993 137.708 C 210.684 138.444,210.833 138.577,210.833 138.451 C 210.833 138.425,210.477 138.068,210.042 137.660 L 209.250 136.917 209.993 137.708 M189.250 138.335 C 189.036 138.427,189.214 138.445,189.750 138.383 C 190.208 138.330,190.615 138.259,190.653 138.227 C 190.797 138.102,189.568 138.197,189.250 138.335 M203.417 138.266 C 204.197 138.391,205.296 138.407,205.224 138.292 C 205.182 138.223,204.683 138.177,204.115 138.189 C 203.548 138.202,203.233 138.236,203.417 138.266 M187.754 138.599 C 187.390 138.733,187.021 138.913,186.934 138.999 C 186.848 139.085,187.184 139.002,187.680 138.813 C 188.177 138.625,188.615 138.440,188.653 138.402 C 188.780 138.276,188.423 138.354,187.754 138.599 M191.042 138.448 C 191.202 138.490,191.465 138.490,191.625 138.448 C 191.785 138.406,191.654 138.372,191.333 138.372 C 191.012 138.372,190.881 138.406,191.042 138.448 M205.500 138.409 C 205.500 138.454,205.744 138.614,206.042 138.764 C 206.340 138.914,206.846 139.273,207.166 139.560 L 207.749 140.083 207.250 139.526 C 206.805 139.031,205.500 138.197,205.500 138.409 M201.583 139.098 L 201.083 139.528 201.625 139.169 C 201.923 138.972,202.167 138.778,202.167 138.739 C 202.167 138.614,202.096 138.657,201.583 139.098 M259.513 139.256 C 259.506 139.352,259.757 140.177,260.071 141.090 C 260.385 142.003,260.647 142.672,260.654 142.577 C 260.661 142.482,260.410 141.657,260.096 140.744 C 259.782 139.830,259.520 139.161,259.513 139.256 M265.000 139.377 C 265.000 139.546,266.719 142.670,266.779 142.610 C 266.829 142.560,265.235 139.521,265.067 139.347 C 265.030 139.309,265.000 139.322,265.000 139.377 M230.667 140.240 C 230.667 140.464,230.728 140.685,230.803 140.731 C 230.878 140.778,230.907 140.595,230.868 140.325 C 230.780 139.729,230.667 139.681,230.667 140.240 M208.017 140.866 C 208.213 141.251,208.474 141.869,208.598 142.241 C 208.813 142.887,208.818 142.891,208.724 142.333 C 208.627 141.758,207.907 140.167,207.744 140.167 C 207.698 140.167,207.820 140.481,208.017 140.866 M237.117 141.199 C 236.990 142.146,237.101 142.211,237.303 141.307 C 237.398 140.879,237.472 140.744,237.482 140.976 C 237.511 141.606,238.052 144.429,238.109 144.248 C 238.209 143.932,237.560 140.603,237.387 140.546 C 237.291 140.514,237.169 140.808,237.117 141.199 M163.285 141.667 C 163.336 142.262,163.405 142.781,163.439 142.819 C 163.550 142.946,163.463 141.593,163.327 141.083 C 163.243 140.768,163.227 140.984,163.285 141.667 M271.273 141.994 C 270.940 142.723,270.668 143.417,270.669 143.535 C 270.670 143.707,271.187 142.631,271.946 140.875 C 271.995 140.760,272.001 140.667,271.958 140.667 C 271.915 140.667,271.607 141.264,271.273 141.994 M230.941 141.583 C 231.161 142.556,231.337 142.959,231.234 142.250 C 231.180 141.883,231.067 141.471,230.982 141.333 C 230.880 141.166,230.866 141.249,230.941 141.583 M122.539 141.833 C 122.539 142.154,122.573 142.285,122.615 142.125 C 122.657 141.965,122.657 141.702,122.615 141.542 C 122.573 141.381,122.539 141.512,122.539 141.833 M180.361 144.783 C 180.334 146.626,180.549 148.241,180.846 148.425 C 180.930 148.477,180.913 148.309,180.808 148.051 C 180.703 147.794,180.566 146.533,180.503 145.250 L 180.389 142.917 180.361 144.783 M208.879 143.667 C 208.879 144.079,208.911 144.248,208.951 144.042 C 208.991 143.835,208.991 143.498,208.951 143.292 C 208.911 143.085,208.879 143.254,208.879 143.667 M254.762 143.429 C 254.701 143.673,254.683 143.905,254.722 143.944 C 254.761 143.983,254.843 143.816,254.905 143.571 C 254.966 143.327,254.984 143.095,254.945 143.056 C 254.906 143.017,254.823 143.184,254.762 143.429 M208.854 145.667 C 208.822 146.420,208.461 147.771,208.109 148.450 C 207.958 148.743,207.837 149.043,207.841 149.117 C 207.845 149.190,208.024 148.912,208.238 148.500 C 208.700 147.609,209.065 146.084,208.956 145.500 C 208.895 145.168,208.874 145.202,208.854 145.667 M242.750 146.000 C 242.686 146.379,242.669 146.724,242.711 146.767 C 242.754 146.810,242.839 146.532,242.900 146.150 C 242.961 145.768,242.979 145.423,242.939 145.383 C 242.899 145.343,242.814 145.621,242.750 146.000 M272.271 145.923 C 272.213 146.072,272.174 146.357,272.184 146.555 C 272.195 146.784,272.251 146.703,272.338 146.334 C 272.483 145.715,272.444 145.472,272.271 145.923 M163.375 147.250 C 163.377 147.617,163.411 147.747,163.451 147.540 C 163.491 147.332,163.490 147.032,163.448 146.873 C 163.406 146.714,163.374 146.883,163.375 147.250 M122.539 147.667 C 122.539 147.987,122.573 148.119,122.615 147.958 C 122.657 147.798,122.657 147.535,122.615 147.375 C 122.573 147.215,122.539 147.346,122.539 147.667 M242.081 149.004 C 242.114 149.457,242.333 149.631,242.333 149.204 C 242.333 149.011,242.271 148.815,242.195 148.768 C 242.119 148.721,242.068 148.827,242.081 149.004 M207.240 149.849 C 206.970 150.132,206.469 150.509,206.125 150.685 C 205.781 150.862,205.500 151.044,205.500 151.090 C 205.500 151.299,206.809 150.468,207.324 149.931 C 207.640 149.602,207.861 149.333,207.814 149.333 C 207.767 149.333,207.509 149.565,207.240 149.849 M162.234 151.722 C 161.400 153.924,161.447 153.780,161.650 153.500 C 161.909 153.144,162.860 150.661,162.800 150.497 C 162.773 150.422,162.518 150.974,162.234 151.722 M123.175 150.610 C 123.164 150.866,123.865 152.691,123.943 152.612 C 123.977 152.579,123.819 152.071,123.594 151.484 C 123.368 150.897,123.179 150.504,123.175 150.610 M187.167 150.596 C 187.167 150.709,188.032 151.023,188.115 150.941 C 188.153 150.903,187.955 150.792,187.675 150.695 C 187.395 150.597,187.167 150.553,187.167 150.596 M219.145 150.878 C 219.215 150.949,220.918 150.986,222.928 150.961 L 226.583 150.916 222.800 150.833 C 220.719 150.787,219.074 150.808,219.145 150.878 M188.481 151.048 C 188.554 151.121,189.319 151.158,190.182 151.131 L 191.750 151.081 190.049 150.999 C 189.114 150.954,188.408 150.976,188.481 151.048 M209.910 151.708 L 209.083 152.583 209.958 151.756 C 210.440 151.301,210.833 150.908,210.833 150.881 C 210.833 150.757,210.679 150.895,209.910 151.708 M259.939 152.092 C 260.180 152.821,260.442 153.488,260.521 153.575 C 260.601 153.662,260.469 153.137,260.228 152.408 C 259.987 151.679,259.725 151.012,259.645 150.925 C 259.566 150.838,259.698 151.363,259.939 152.092 M248.603 152.603 C 248.455 153.036,248.363 153.419,248.398 153.454 C 248.434 153.489,248.583 153.164,248.731 152.731 C 248.878 152.298,248.970 151.915,248.935 151.879 C 248.900 151.844,248.750 152.170,248.603 152.603 M124.015 152.917 C 124.015 153.008,124.196 153.421,124.417 153.833 C 124.638 154.246,124.818 154.508,124.818 154.417 C 124.818 154.325,124.638 153.912,124.417 153.500 C 124.196 153.087,124.015 152.825,124.015 152.917 M160.917 154.667 C 160.684 155.125,160.532 155.500,160.578 155.500 C 160.624 155.500,160.851 155.125,161.083 154.667 C 161.316 154.208,161.468 153.833,161.422 153.833 C 161.376 153.833,161.149 154.208,160.917 154.667 M136.464 160.110 C 136.211 160.251,136.167 160.328,136.333 160.340 C 136.471 160.350,136.321 160.457,136.000 160.578 L 135.417 160.797 136.000 161.053 C 136.321 161.194,136.727 161.480,136.903 161.689 C 137.156 161.991,137.242 162.019,137.319 161.826 C 137.464 161.465,137.761 161.477,137.788 161.845 C 137.802 162.022,137.724 162.169,137.615 162.172 C 137.499 162.175,137.521 162.237,137.667 162.321 C 138.137 162.591,142.160 162.884,143.808 162.768 C 145.543 162.646,147.661 162.215,146.750 162.170 C 146.040 162.135,146.724 161.863,147.662 161.808 C 148.098 161.782,148.333 161.689,148.333 161.541 C 148.333 161.416,148.408 161.360,148.500 161.417 C 148.592 161.473,148.667 161.436,148.667 161.333 C 148.667 161.231,148.734 161.189,148.816 161.239 C 148.898 161.290,149.142 161.188,149.358 161.012 L 149.750 160.692 148.875 160.574 C 148.235 160.489,147.997 160.384,147.988 160.187 C 147.979 159.970,147.952 159.979,147.854 160.229 C 147.734 160.534,147.724 160.534,147.419 160.229 C 147.022 159.831,137.159 159.724,136.464 160.110 M130.500 161.250 C 130.811 161.479,131.106 161.666,131.157 161.666 C 131.315 161.664,130.260 160.846,130.093 160.839 C 130.006 160.836,130.189 161.021,130.500 161.250 M154.589 161.686 C 153.786 162.290,153.643 162.435,154.083 162.201 C 154.597 161.928,155.584 161.165,155.407 161.178 C 155.321 161.184,154.953 161.413,154.589 161.686 " stroke="none" fill="#7ca4d4" fill-rule="evenodd"></path><path id="path4" d="M10.737 3.417 C 10.737 5.342,10.762 6.106,10.791 5.116 C 10.821 4.126,10.821 2.551,10.791 1.616 C 10.761 0.681,10.737 1.492,10.737 3.417 M1.717 10.791 C 2.708 10.821,4.283 10.821,5.217 10.791 C 6.152 10.761,5.342 10.737,3.417 10.737 C 1.492 10.737,0.727 10.762,1.717 10.791 M394.884 10.791 C 395.874 10.821,397.449 10.821,398.384 10.791 C 399.319 10.761,398.508 10.737,396.583 10.737 C 394.658 10.737,393.894 10.762,394.884 10.791 M235.514 136.431 C 235.406 136.858,235.350 137.238,235.388 137.277 C 235.426 137.315,235.545 136.997,235.653 136.569 C 235.760 136.142,235.817 135.762,235.779 135.723 C 235.741 135.685,235.621 136.003,235.514 136.431 M239.362 135.833 C 239.370 136.266,239.633 136.978,239.638 136.583 C 239.641 136.400,239.579 136.100,239.500 135.917 C 239.412 135.712,239.359 135.680,239.362 135.833 M267.167 136.035 C 267.167 136.215,267.673 137.333,267.754 137.333 C 267.800 137.333,267.722 137.056,267.580 136.717 C 267.330 136.119,267.167 135.849,267.167 136.035 M184.167 136.946 L 183.750 137.372 184.208 137.083 C 184.460 136.925,184.667 136.729,184.667 136.647 C 184.667 136.446,184.642 136.461,184.167 136.946 M198.652 137.375 C 198.236 137.765,198.088 137.927,198.323 137.737 C 198.558 137.546,198.966 137.227,199.231 137.028 C 199.495 136.829,199.643 136.667,199.560 136.667 C 199.476 136.667,199.067 136.985,198.652 137.375 M183.011 137.884 L 182.605 138.417 183.136 137.927 C 183.688 137.418,183.751 137.327,183.542 137.343 C 183.473 137.348,183.234 137.591,183.011 137.884 M252.934 138.948 C 252.695 139.665,252.506 140.326,252.513 140.417 C 252.519 140.509,252.744 139.951,253.011 139.179 C 253.278 138.407,253.468 137.746,253.432 137.710 C 253.397 137.675,253.173 138.232,252.934 138.948 M264.003 137.714 C 264.001 137.786,264.224 138.236,264.498 138.714 C 264.773 139.192,264.996 139.508,264.996 139.417 C 264.994 139.218,264.007 137.525,264.003 137.714 M185.575 140.208 L 184.917 140.917 185.625 140.258 C 186.284 139.645,186.410 139.500,186.284 139.500 C 186.257 139.500,185.938 139.819,185.575 140.208 M196.186 141.016 C 196.084 141.310,196.005 141.632,196.012 141.733 C 196.018 141.834,196.131 141.623,196.262 141.265 C 196.394 140.906,196.472 140.583,196.437 140.548 C 196.401 140.512,196.288 140.723,196.186 141.016 M252.271 140.923 C 252.213 141.072,252.173 141.319,252.181 141.472 C 252.189 141.625,252.261 141.529,252.342 141.258 C 252.499 140.732,252.444 140.472,252.271 140.923 M122.398 144.333 C 122.398 145.479,122.424 145.948,122.457 145.375 C 122.489 144.802,122.489 143.865,122.457 143.292 C 122.424 142.719,122.398 143.188,122.398 144.333 M195.714 143.583 C 195.716 144.042,195.748 144.209,195.786 143.956 C 195.825 143.703,195.824 143.328,195.784 143.123 C 195.744 142.918,195.713 143.125,195.714 143.583 M199.394 144.750 C 199.395 145.667,199.423 146.020,199.456 145.536 C 199.490 145.052,199.490 144.302,199.456 143.869 C 199.421 143.437,199.394 143.833,199.394 144.750 M261.049 143.888 C 261.096 144.009,261.416 145.022,261.761 146.138 C 262.107 147.253,262.419 148.136,262.457 148.099 C 262.547 148.008,261.178 143.667,261.058 143.667 C 261.007 143.667,261.002 143.766,261.049 143.888 M163.557 145.083 C 163.558 145.817,163.587 146.096,163.622 145.704 C 163.657 145.312,163.657 144.712,163.621 144.371 C 163.585 144.029,163.557 144.350,163.557 145.083 M272.772 145.208 L 272.472 145.750 272.816 145.333 C 273.120 144.964,273.256 144.667,273.119 144.667 C 273.093 144.667,272.937 144.910,272.772 145.208 M195.717 146.167 C 195.717 146.671,195.748 146.877,195.786 146.625 C 195.824 146.373,195.824 145.960,195.786 145.708 C 195.748 145.456,195.717 145.662,195.717 146.167 M272.236 149.833 C 272.236 151.529,272.261 152.223,272.291 151.375 C 272.321 150.527,272.321 149.140,272.291 148.292 C 272.261 147.444,272.236 148.137,272.236 149.833 M195.937 147.667 C 195.996 147.987,196.109 148.400,196.189 148.583 C 196.289 148.812,196.302 148.734,196.229 148.333 C 196.171 148.012,196.058 147.600,195.978 147.417 C 195.877 147.188,195.865 147.266,195.937 147.667 M258.860 148.750 C 258.859 148.842,258.960 149.179,259.083 149.500 C 259.207 149.821,259.310 149.971,259.313 149.833 C 259.316 149.696,259.215 149.358,259.089 149.083 C 258.963 148.808,258.860 148.658,258.860 148.750 M196.345 149.083 C 196.345 149.175,196.452 149.438,196.583 149.667 C 196.714 149.896,196.822 150.008,196.822 149.917 C 196.822 149.825,196.714 149.563,196.583 149.333 C 196.452 149.104,196.345 148.992,196.345 149.083 M182.835 151.759 C 183.063 152.039,183.511 152.395,183.833 152.550 C 184.393 152.821,184.400 152.821,184.004 152.541 C 183.777 152.381,183.328 152.025,183.007 151.750 L 182.422 151.250 182.835 151.759 M197.667 151.385 C 197.667 151.414,197.910 151.658,198.208 151.927 L 198.750 152.417 198.260 151.875 C 197.804 151.370,197.667 151.257,197.667 151.385 M230.225 153.041 C 230.239 153.384,230.306 153.666,230.375 153.666 C 230.536 153.667,230.516 153.178,230.338 152.750 C 230.233 152.497,230.206 152.568,230.225 153.041 M159.411 157.125 C 159.157 157.469,158.754 157.978,158.516 158.257 C 158.278 158.536,158.383 158.462,158.750 158.092 C 159.117 157.722,159.492 157.443,159.583 157.473 C 159.675 157.503,159.693 157.471,159.624 157.402 C 159.555 157.333,159.613 157.102,159.753 156.888 C 160.156 156.273,159.920 156.437,159.411 157.125 M127.500 158.499 C 127.883 158.958,128.284 159.386,128.390 159.451 C 128.496 159.516,128.218 159.142,127.771 158.618 C 127.325 158.095,126.924 157.667,126.881 157.667 C 126.838 157.667,127.116 158.041,127.500 158.499 M10.737 285.583 C 10.737 287.508,10.762 288.273,10.791 287.283 C 10.821 286.292,10.821 284.717,10.791 283.783 C 10.761 282.848,10.737 283.658,10.737 285.583 " stroke="none" fill="#d4d0d4" fill-rule="evenodd"></path></g></svg>